<?xml version="1.0" encoding="UTF-8"?>
<svg version="1.1" xmlns="http://www.w3.org/2000/svg" width="1080" height="1080">
<path d="M0 0 C356.4 0 712.8 0 1080 0 C1080 356.4 1080 712.8 1080 1080 C723.6 1080 367.2 1080 0 1080 C0 723.6 0 367.2 0 0 Z " fill="#FEFEFE" transform="translate(0,0)"/>
<path d="M0 0 C-0.67387567 17.7745546 -1.48697146 35.53964558 -2.375 53.3046875 C-2.50573853 55.93303218 -2.63643427 58.56137898 -2.76708984 61.18972778 C-3.03843127 66.64362309 -3.31092466 72.09746001 -3.58398438 77.55126953 C-3.89797403 83.82316642 -4.20935146 90.09518942 -4.5195446 96.36727512 C-4.82136543 102.46760742 -5.12569575 108.56781211 -5.43096924 114.66797256 C-5.55925941 117.23780893 -5.68683504 119.80768107 -5.81365967 122.37759018 C-5.9908145 125.96261256 -6.17084033 129.54748013 -6.3515625 133.13232422 C-6.40250061 134.17558868 -6.45343872 135.21885315 -6.50592041 136.29373169 C-6.84180743 142.88090151 -7.35334107 149.4360808 -8 156 C-16.03043627 156.77209501 -23.93316906 157.10335831 -32 157 C-31.37125492 139.60625776 -30.11109993 122.27560527 -28.73010254 104.92889404 C-28.5063631 102.10363361 -28.28721485 99.27802446 -28.0680027 96.45240974 C-26.01332089 70.01100636 -26.01332089 70.01100636 -24.58070374 57.57466125 C-24.17690399 54.02888796 -23.90682382 50.56973119 -24 47 C-24.39155273 48.85286621 -24.39155273 48.85286621 -24.79101562 50.74316406 C-27.39642167 63.06380773 -30.01821934 75.38088166 -32.65283203 87.6953125 C-33.50937479 91.69968232 -34.36215806 95.70481182 -35.21044922 99.7109375 C-36.10840953 103.94931019 -37.01711995 108.18522201 -37.93505859 112.41931152 C-38.26892479 113.96802563 -38.59886829 115.5175908 -38.92480469 117.06799316 C-39.37565673 119.20919179 -39.84028405 121.34693753 -40.30859375 123.484375 C-40.56439209 124.67772461 -40.82019043 125.87107422 -41.08374023 127.10058594 C-42.06278837 130.19868764 -42.39435107 131.15502715 -45 133 C-47.62939205 133.37644848 -50.05072472 133.60133087 -52.6875 133.6875 C-53.38939453 133.72166016 -54.09128906 133.75582031 -54.81445312 133.79101562 C-56.54241387 133.87329947 -58.27118072 133.9383324 -60 134 C-60.5303181 125.92282687 -61.05231822 117.84517185 -61.56460571 109.76683712 C-61.80289846 106.01299765 -62.04372161 102.25936161 -62.29101562 98.50610352 C-63.44336784 80.98686298 -64.32185158 63.56884951 -64 46 C-64.66 46 -65.32 46 -66 46 C-65.94888062 47.76283325 -65.94888062 47.76283325 -65.89672852 49.5612793 C-65.53001649 69.1131362 -67.22457911 88.53133741 -68.7230835 108.00848389 C-69.01076359 111.77059918 -69.29103317 115.53325001 -69.57096004 119.29594898 C-72.64807713 160.64807713 -72.64807713 160.64807713 -74 162 C-81.6110373 163.36998671 -89.29710913 163.09026825 -97 163 C-97.240416 154.6204519 -96.3110319 146.40765523 -95.390625 138.09375 C-95.22048409 136.52660984 -95.0507127 134.95942952 -94.88128662 133.39221191 C-94.52440547 130.10033633 -94.16434353 126.80883018 -93.80175781 123.51757812 C-93.34901311 119.40737421 -92.90205004 115.29657093 -92.45728016 111.18549728 C-90.39945252 92.17673842 -88.2080451 73.18833781 -85.87939453 54.2109375 C-85.14782977 48.24262798 -84.44252899 42.27205852 -83.76953125 36.296875 C-83.68603424 35.55574463 -83.60253723 34.81461426 -83.51651001 34.05102539 C-83.19735138 31.20691443 -82.88050909 28.36255083 -82.56469727 25.51806641 C-82.32229145 23.33996149 -82.07730387 21.16215865 -81.83203125 18.984375 C-81.69514893 17.75428711 -81.5582666 16.52419922 -81.41723633 15.25683594 C-81.06238311 12.48694602 -80.54765974 9.7382987 -80 7 C-66.635 6.01 -66.635 6.01 -53 5 C-50.73208347 34.32092079 -48.48997444 63.57152495 -49 93 C-48.34 93 -47.68 93 -47 93 C-47.07605469 91.87078125 -47.15210938 90.7415625 -47.23046875 89.578125 C-47.22289644 81.81802016 -45.05887651 74.26677367 -43.3125 66.75 C-42.94155655 65.12175155 -42.57136276 63.49333214 -42.2019043 61.86474609 C-39.92159219 51.84731829 -37.57571207 41.84504586 -35.16015625 31.859375 C-33.57092085 25.26109999 -32.09094527 18.63757987 -30.6105957 12.01416016 C-30.41425537 11.14065918 -30.21791504 10.2671582 -30.015625 9.3671875 C-29.75700684 8.20872314 -29.75700684 8.20872314 -29.49316406 7.02685547 C-29 5 -29 5 -28 2 C-24.08356163 1.66394778 -20.16681514 1.33162966 -16.25 1 C-14.58324219 0.85691406 -14.58324219 0.85691406 -12.8828125 0.7109375 C-11.81289063 0.62070312 -10.74296875 0.53046875 -9.640625 0.4375 C-8.65610352 0.35371094 -7.67158203 0.26992188 -6.65722656 0.18359375 C-4.4425871 0.03057934 -2.21991922 0 0 0 Z " fill="#318C5A" transform="translate(589,416)"/>
<path d="M0 0 C-0.17184838 2.46744977 -0.34373057 4.93489718 -0.515625 7.40234375 C-0.57123093 8.20078705 -0.62683685 8.99923035 -0.68412781 9.8218689 C-1.00673603 14.45251434 -1.33009878 19.08310572 -1.65454102 23.71362305 C-2.3472412 33.60622398 -3.03559016 43.49906521 -3.70848083 53.39303589 C-5.65457753 81.98290718 -7.77520889 110.54399727 -10.37896729 139.08215332 C-10.95314931 145.38594632 -11.47426849 151.69122183 -12 158 C-24.375 158.99 -24.375 158.99 -37 160 C-39.80403544 142.86001763 -42.36581148 125.7057859 -44.71972656 108.49853516 C-45.16974361 105.21125592 -45.6229892 101.9244569 -46.07803726 98.6378727 C-46.51763323 95.45938657 -46.95403405 92.28046256 -47.390625 89.1015625 C-47.55306702 87.92679352 -47.71550903 86.75202454 -47.88287354 85.54165649 C-48.03012878 84.46137177 -48.17738403 83.38108704 -48.32910156 82.26806641 C-48.52418304 80.84562119 -48.52418304 80.84562119 -48.72320557 79.3944397 C-49 77 -49 77 -49 74 C-49.66 74 -50.32 74 -51 74 C-50.97905273 74.58225342 -50.95810547 75.16450684 -50.93652344 75.7644043 C-50.3037762 96.75919791 -52.26485399 117.37744456 -54.28994751 138.2495575 C-55.04455844 146.15756086 -55.57556911 154.06760634 -56 162 C-58.68693722 162.33851178 -61.37440289 162.670936 -64.0625 163 C-65.19075195 163.14308594 -65.19075195 163.14308594 -66.34179688 163.2890625 C-67.45844727 163.42441406 -67.45844727 163.42441406 -68.59765625 163.5625 C-69.27320557 163.64628906 -69.94875488 163.73007812 -70.64477539 163.81640625 C-73.76573484 164.05969033 -76.87073097 164.0107096 -80 164 C-79.31806355 148.28625682 -78.20867633 132.61890448 -77.00390625 116.9375 C-76.80818504 114.36842035 -76.61262658 111.79932829 -76.41722107 109.23022461 C-76.00956382 103.87828789 -75.60012469 98.5264921 -75.18920898 93.17480469 C-74.71873234 87.0470259 -74.25181799 80.91898349 -73.78678185 74.7907896 C-73.33352408 68.81910904 -72.87754435 62.84763983 -72.42045403 56.87625122 C-72.2288364 54.3696914 -72.03788448 51.86308059 -71.84765816 49.35641479 C-70.74778373 34.88287457 -69.52907165 20.43492021 -68 6 C-66.41807861 5.76990234 -66.41807861 5.76990234 -64.80419922 5.53515625 C-63.59006348 5.35855469 -62.37592773 5.18195313 -61.125 5 C-55.02856948 4.11324647 -49.15853874 3.88615795 -43 4 C-40.24642894 19.27539699 -38.10404009 34.57639754 -36.18365479 49.97393799 C-34.4261299 64.03787141 -32.39940097 78.0289333 -30 92 C-29.96036133 91.12118164 -29.92072266 90.24236328 -29.87988281 89.33691406 C-28.53100528 60.1758214 -26.3433564 31.09637385 -24 2 C-15.97649696 0.81603117 -8.13544686 -0.28545428 0 0 Z " fill="#3EB473" transform="translate(652,239)"/>
<path d="M0 0 C6.71023192 5.79467351 10.45184608 12.01359548 11.26586914 20.90356445 C11.36722182 24.12932293 11.36464562 27.33560636 11.3125 30.5625 C11.30049561 31.71202148 11.28849121 32.86154297 11.27612305 34.04589844 C10.71994775 67.71935446 10.71994775 67.71935446 -0.74502563 79.25369263 C-4.25268864 84.13463516 -1.74407543 93.22801832 -0.9765625 98.8828125 C-0.87032562 99.70014862 -0.76408875 100.51748474 -0.65463257 101.35958862 C-0.3167996 103.9487985 0.02894764 106.53687727 0.375 109.125 C0.59948259 110.83586879 0.8234446 112.54680598 1.046875 114.2578125 C1.88199682 120.63256045 2.71778849 127.00702511 3.61035156 133.37402344 C3.70418121 134.05165741 3.79801086 134.72929138 3.89468384 135.42745972 C4.1449079 137.22926008 4.39965924 139.03043014 4.65478516 140.83154297 C5 144 5 144 5 150 C-7.375 150.99 -7.375 150.99 -20 152 C-22.02981106 136.61671109 -24.02896108 121.23390059 -25.75 105.8125 C-25.87737549 104.68030029 -26.00475098 103.54810059 -26.13598633 102.3815918 C-26.25095459 101.33398682 -26.36592285 100.28638184 -26.484375 99.20703125 C-26.58459961 98.2941333 -26.68482422 97.38123535 -26.78808594 96.44067383 C-27 94 -27 94 -27 90 C-28.65 90 -30.3 90 -32 90 C-31.97498413 90.89416626 -31.97498413 90.89416626 -31.94946289 91.80639648 C-31.82918363 99.84568295 -32.4865358 107.77038839 -33.22543335 115.76473999 C-33.58324495 119.64165876 -33.92514192 123.51996353 -34.265625 127.3984375 C-34.33178513 128.15051987 -34.39794525 128.90260223 -34.46611023 129.67747498 C-35.16956892 137.77862131 -35.62738416 145.87697472 -36 154 C-48.375 154.99 -48.375 154.99 -61 156 C-61 150.03445351 -60.97282316 144.38763396 -60.52856445 138.48901367 C-60.47797536 137.80407617 -60.42738626 137.11913866 -60.37526417 136.41344547 C-60.20820975 134.16466661 -60.03582757 131.91633234 -59.86328125 129.66796875 C-59.74206077 128.05379292 -59.62112674 126.43959557 -59.50045776 124.82537842 C-59.17644409 120.50592911 -58.84745289 116.18687304 -58.51714706 111.86790085 C-58.31218893 109.18342574 -58.10857886 106.49885179 -57.90542603 103.8142395 C-56.06635635 79.51663452 -54.16999228 55.22382934 -52.1875 30.9375 C-52.08281403 29.64927338 -51.97812805 28.36104675 -51.87026978 27.03378296 C-51.57631378 23.42724618 -51.27911871 19.82099453 -50.98046875 16.21484375 C-50.89529999 15.17060242 -50.81013123 14.12636108 -50.72238159 13.05047607 C-50.29941412 8.00130515 -49.78465859 3.00618293 -49 -2 C-9.79518047 -6.96712646 -9.79518047 -6.96712646 0 0 Z " fill="#3DB372" transform="translate(363,273)"/>
<path d="M0 0 C0.70125 0.886875 1.4025 1.77375 2.125 2.6875 C2.56457031 3.22503906 3.00414062 3.76257813 3.45703125 4.31640625 C8.62206979 10.96992852 9.46848095 17.7232641 9.375 25.9375 C9.36823242 26.80576416 9.36146484 27.67402832 9.35449219 28.56860352 C8.83515617 61.97217546 8.83515617 61.97217546 -0.6875 73.5625 C-3.77028109 77.6791273 -4.2072188 80.1182011 -3.73046875 85.2109375 C-3.67375 85.8535553 -3.61703125 86.4961731 -3.55859375 87.15826416 C-3.35582543 89.33802359 -3.11978045 91.51206793 -2.875 93.6875 C-2.74310776 94.8745755 -2.74310776 94.8745755 -2.60855103 96.08563232 C-1.91599593 102.20955432 -1.15067972 108.32364323 -0.375 114.4375 C0.07535091 118.0153234 0.5231365 121.59345854 0.96875 125.171875 C1.07380859 126.01399536 1.17886719 126.85611572 1.28710938 127.72375488 C2.02457437 133.7016818 2.66112695 139.6813825 3.125 145.6875 C1.2105498 146.03333617 -0.7067687 146.36329189 -2.625 146.6875 C-3.69234375 146.873125 -4.7596875 147.05875 -5.859375 147.25 C-11.16497125 147.98417981 -16.532073 147.76675232 -21.875 147.6875 C-22.55079833 142.42631346 -23.22623557 137.16508073 -23.90136719 131.90380859 C-24.13011398 130.12156992 -24.35895205 128.33934296 -24.58789062 126.55712891 C-25.24808297 121.41747358 -25.90549166 116.27747281 -26.56091309 111.13720703 C-26.86550347 108.76156776 -27.17492018 106.38660089 -27.48535156 104.01171875 C-27.67000109 102.58073939 -27.85457573 101.14975036 -28.0390625 99.71875 C-28.20100098 98.47673828 -28.36293945 97.23472656 -28.52978516 95.95507812 C-28.82483059 93.16237082 -28.94609055 90.49125798 -28.875 87.6875 C-30.525 87.6875 -32.175 87.6875 -33.875 87.6875 C-33.84998413 88.96475952 -33.84998413 88.96475952 -33.82446289 90.26782227 C-33.71766796 100.24883628 -34.29014857 110.09682048 -35.10180664 120.04223633 C-35.31417644 122.64555044 -35.51813812 125.24942187 -35.72070312 127.85351562 C-35.85368661 129.53649633 -35.98713341 131.21944051 -36.12109375 132.90234375 C-36.21178383 134.04944069 -36.21178383 134.04944069 -36.30430603 135.2197113 C-36.70130862 140.06282293 -37.24268916 144.86932551 -37.875 149.6875 C-45.89850304 150.87146883 -53.73955314 151.97295428 -61.875 151.6875 C-62.13379484 138.53499842 -61.32670151 125.5904693 -60.23046875 112.48828125 C-60.05768534 110.36163686 -59.88552446 108.23494181 -59.71394348 106.10820007 C-59.26241322 100.53128662 -58.80283917 94.95506595 -58.34136963 89.37896729 C-57.88377089 83.83440091 -57.4332595 78.28926016 -56.98242188 72.74414062 C-56.45361851 66.24531752 -55.92416657 59.74655095 -55.39108276 53.24807739 C-53.84501654 34.39772591 -52.34836797 15.54366175 -50.875 -3.3125 C-10.84945336 -8.72673422 -10.84945336 -8.72673422 0 0 Z " fill="#318C5A" transform="translate(732.875,410.3125)"/>
<path d="M0 0 C-0.1185082 2.87538311 -0.24491549 5.75013229 -0.375 8.625 C-0.4059375 9.39457031 -0.436875 10.16414062 -0.46875 10.95703125 C-0.76281056 17.27933326 -1.31549014 23.56392533 -1.91015625 29.86328125 C-3.33540867 45.0470229 -4.30375933 60.26311128 -5.32543945 75.47827148 C-5.58012736 79.25784007 -5.83871246 83.03712723 -6.09765625 86.81640625 C-6.17371597 87.96839005 -6.2497757 89.12037384 -6.32814026 90.30726624 C-6.40169235 91.37706223 -6.47524445 92.44685822 -6.55102539 93.54907227 C-6.61383194 94.48421158 -6.67663849 95.41935089 -6.74134827 96.38282776 C-6.9976031 98.97574692 -7.46564461 101.45179774 -8 104 C-8.1847282 105.89707534 -8.33728851 107.79744353 -8.46484375 109.69921875 C-8.58013428 111.37226074 -8.58013428 111.37226074 -8.69775391 113.07910156 C-8.77687012 114.26987305 -8.85598633 115.46064453 -8.9375 116.6875 C-9.11003354 119.19665892 -9.28322747 121.7057725 -9.45703125 124.21484375 C-9.54549316 125.4972998 -9.63395508 126.77975586 -9.72509766 128.10107422 C-10.4280813 138.07145496 -11.22494745 148.03503866 -12 158 C-24.375 158.99 -24.375 158.99 -37 160 C-35.90850379 137.62432779 -34.60538825 115.2566677 -32 93 C-36.95 93.33 -41.9 93.66 -47 94 C-47.1340625 96.16433594 -47.268125 98.32867187 -47.40625 100.55859375 C-48.01941256 110.38981496 -48.65495482 120.21955428 -49.30224609 130.04858398 C-49.43513477 132.07390581 -49.56695419 134.09929805 -49.69775391 136.12475586 C-49.8896939 139.09506296 -50.08511089 142.06512383 -50.28125 145.03515625 C-50.338573 145.93315445 -50.395896 146.83115265 -50.45495605 147.75636292 C-50.77546993 152.54925667 -51.24947811 157.25488173 -52 162 C-60.02570673 162.90068052 -67.92890134 163.09325232 -76 163 C-76.37086653 148.74130955 -75.21831239 134.63915366 -74.1015625 120.43359375 C-73.90407237 117.86601023 -73.70709112 115.29838752 -73.5105896 112.73072815 C-73.09892915 107.36731417 -72.68357847 102.00420805 -72.26464844 96.64135742 C-71.68028126 89.16057305 -71.10417443 81.67916957 -70.52963376 74.19762504 C-70.07615312 68.29698278 -69.62016966 62.39653348 -69.1640625 56.49609375 C-69.0697356 55.2750186 -68.97540871 54.05394344 -68.87822342 52.79586601 C-67.67000909 37.18945219 -66.38928913 21.59137986 -65 6 C-62.99702962 5.74988302 -60.99405924 5.49976603 -58.99108887 5.24964905 C-57.50419166 5.06321715 -56.0176313 4.87409515 -54.53125 4.68359375 C-49.65011195 4.0922251 -44.916595 3.91060736 -40 4 C-39.75113759 12.00206848 -40.44470904 19.87799604 -41.22515869 27.83288574 C-42.33146617 39.12364555 -43.32219806 50.39623865 -43.7890625 61.734375 C-43.97348164 64.58945655 -44.35238213 67.21842816 -45 70 C-44.01 69.505 -44.01 69.505 -43 69 C-40.7927077 68.92907158 -38.58332548 68.91584975 -36.375 68.9375 C-35.18648437 68.94652344 -33.99796875 68.95554687 -32.7734375 68.96484375 C-31.40058594 68.98224609 -31.40058594 68.98224609 -30 69 C-29.95512451 68.17838379 -29.91024902 67.35676758 -29.86401367 66.51025391 C-28.66853629 44.96188583 -27.0155838 23.4867696 -25 2 C-22.80022611 1.66433865 -20.59951472 1.33481826 -18.3984375 1.0078125 C-17.17302246 0.8236377 -15.94760742 0.63946289 -14.68505859 0.44970703 C-9.76857233 -0.15027758 -4.94269755 -0.18156848 0 0 Z " fill="#3EB473" transform="translate(805,224)"/>
<path d="M0 0 C-0.40414319 6.60227144 -0.81362712 13.20419615 -1.22680664 19.8059082 C-1.36670638 22.05127475 -1.50538821 24.29671752 -1.64282227 26.54223633 C-1.84069987 29.771856 -2.04297112 33.00117523 -2.24609375 36.23046875 C-2.3065538 37.23272995 -2.36701385 38.23499115 -2.42930603 39.2676239 C-2.51928612 40.67852043 -2.51928612 40.67852043 -2.61108398 42.11791992 C-2.66215805 42.94176682 -2.71323212 43.76561371 -2.76585388 44.61442566 C-3.01240843 47.12642208 -3.50386224 49.52634555 -4 52 C-4.18240958 53.71303698 -4.33578331 55.42933661 -4.46484375 57.1472168 C-4.54162354 58.14984055 -4.61840332 59.15246429 -4.69750977 60.18547058 C-4.81630493 61.80102592 -4.81630493 61.80102592 -4.9375 63.44921875 C-5.02249756 64.57584427 -5.10749512 65.70246979 -5.19506836 66.86323547 C-5.37468449 69.25287015 -5.55278742 71.64261898 -5.72949219 74.0324707 C-5.99569656 77.62935306 -6.26696094 81.22582513 -6.5390625 84.82226562 C-7.35343677 95.6717476 -8.15323832 106.51830232 -8.68041992 117.38615417 C-9.34454734 130.71724927 -11.33566096 144.19277763 -20.90625 154.24609375 C-29.65268143 161.57286187 -38.27199735 163.44488432 -49.41796875 163.33984375 C-56.3726212 162.68002394 -61.68303102 159.75583368 -66.4375 154.6875 C-78.36291839 139.19119362 -72.70675661 113.7085036 -71.28515625 95.6875 C-71.10766848 93.37927181 -70.93071205 91.0710027 -70.7542572 88.76269531 C-70.38572483 83.95851065 -70.01307334 79.15467147 -69.63696289 74.35107422 C-69.15621559 68.2108941 -68.68245859 62.07020142 -68.21134281 55.92927551 C-67.75900885 50.03601123 -67.30358004 44.1429875 -66.84765625 38.25 C-66.76173784 37.13708588 -66.67581944 36.02417175 -66.58729744 34.87753296 C-66.34251036 31.7150968 -66.0955676 28.55283675 -65.84790039 25.390625 C-65.77668976 24.4678627 -65.70547913 23.5451004 -65.6321106 22.59437561 C-65.19484644 17.04777872 -64.6415939 11.5267965 -64 6 C-61.14633646 5.66178803 -58.29219404 5.3293022 -55.4375 5 C-54.63763672 4.90460938 -53.83777344 4.80921875 -53.01367188 4.7109375 C-52.22412109 4.62070313 -51.43457031 4.53046875 -50.62109375 4.4375 C-49.9036499 4.35371094 -49.18620605 4.26992187 -48.44702148 4.18359375 C-45.29393215 3.94702554 -42.16060071 3.97308696 -39 4 C-39.95293633 21.33591347 -41.07486676 38.63621876 -42.62753296 55.9289856 C-43.98545033 71.11009941 -45.01627791 86.30915537 -45.99780273 101.51879883 C-46.05752762 102.4302919 -46.1172525 103.34178497 -46.17878723 104.28089905 C-46.29023642 105.98446828 -46.39944306 107.68818642 -46.50590515 109.39207458 C-46.80617598 113.97044753 -47.31516335 118.4593276 -48 123 C-48.13208082 125.05995275 -48.21795963 127.12356587 -48.25 129.1875 C-48.27578125 130.19167969 -48.3015625 131.19585937 -48.328125 132.23046875 C-47.95694021 135.36344517 -47.09249575 136.6927481 -45 139 C-42.69 138.67 -40.38 138.34 -38 138 C-34.72230459 129.3080245 -34.15274883 120.55997393 -33.53515625 111.39453125 C-33.41674438 109.76373777 -33.29725843 108.13302197 -33.17677307 106.50238037 C-32.92392955 103.05417899 -32.67772799 99.60559795 -32.43707275 96.15652466 C-32.06275536 90.79419731 -31.67361333 85.43301939 -31.28076172 80.07202148 C-31.21582142 79.1854741 -31.15088112 78.29892672 -31.08397293 77.38551426 C-30.95314633 75.59989059 -30.82227056 73.81427053 -30.69134521 72.0286541 C-30.49639564 69.36350214 -30.30286019 66.69825058 -30.10961914 64.03297424 C-29.05576571 49.53310111 -27.88517477 35.04602809 -26.625 20.5625 C-26.53969025 19.5774649 -26.45438049 18.59242981 -26.3664856 17.57754517 C-25.91634756 12.38454845 -25.46134659 7.19201269 -25 2 C-21.95872183 1.66274935 -18.91705809 1.33007668 -15.875 1 C-14.59109375 0.85691406 -14.59109375 0.85691406 -13.28125 0.7109375 C-8.82977526 0.23154791 -4.48558075 -0.11765458 0 0 Z " fill="#3DB473" transform="translate(885,216)"/>
<path d="M0 0 C4.002676 82.11002175 4.002676 82.11002175 5.25 114 C5.29074646 115.00945679 5.33149292 116.01891357 5.37347412 117.05895996 C5.8936384 130.04614879 6.09515469 143.00257449 6 156 C4.00556128 156.24737224 2.01111696 156.49469947 0.01663208 156.74169922 C-1.50878183 156.93120887 -3.03389755 157.12312286 -4.55883789 157.31640625 C-5.23164795 157.39761719 -5.90445801 157.47882813 -6.59765625 157.5625 C-7.27320557 157.64628906 -7.94875488 157.73007812 -8.64477539 157.81640625 C-11.75435073 158.05880292 -14.88099136 158 -18 158 C-18 147.77 -18 137.54 -18 127 C-24.27 127.66 -30.54 128.32 -37 129 C-37.268125 131.68125 -37.53625 134.3625 -37.8125 137.125 C-38.67195171 145.25667815 -40.13455183 153.02944871 -42 161 C-54.375 161.99 -54.375 161.99 -67 163 C-65.33318092 152.01860372 -63.23059049 141.21516242 -60.8125 130.375 C-58.04069718 117.94762572 -55.46535385 105.49171223 -53 93 C-50.34998664 79.58512347 -47.55841957 66.2158012 -44.58740234 52.8684082 C-41.95510093 40.97310016 -39.56518173 29.03374732 -37.22045898 17.07885742 C-37.07880814 16.35972168 -36.93715729 15.64058594 -36.79121399 14.8996582 C-36.40730487 12.94868558 -36.0260709 10.99718709 -35.64501953 9.0456543 C-35 6 -35 6 -34 3 C-29.45890277 2.49473686 -24.91703948 1.99671565 -20.375 1.5 C-18.44720703 1.28537109 -18.44720703 1.28537109 -16.48046875 1.06640625 C-15.23652344 0.93105469 -13.99257813 0.79570312 -12.7109375 0.65625 C-10.99849854 0.46772461 -10.99849854 0.46772461 -9.25146484 0.27539062 C-6.14721819 0.012469 -3.1131503 -0.01915889 0 0 Z " fill="#3DB372" transform="translate(556,248)"/>
<path d="M0 0 C-1.3684744 6.61429294 -3.15511625 12.95708497 -5.25 19.375 C-5.87912598 21.3267521 -6.50802837 23.27857629 -7.13671875 25.23046875 C-7.45044434 26.20032715 -7.76416992 27.17018555 -8.08740234 28.16943359 C-9.43084811 32.33634377 -10.74776401 36.51146026 -12.0625 40.6875 C-12.54813038 42.22657724 -13.03380745 43.76563974 -13.51953125 45.3046875 C-14.55923028 48.60136213 -15.59804762 51.89831389 -16.63671875 55.1953125 C-16.90669678 56.05165283 -17.1766748 56.90799316 -17.45483398 57.7902832 C-17.96909774 59.42149563 -18.4829597 61.05283482 -18.99633789 62.68432617 C-19.34619751 63.79384644 -19.34619751 63.79384644 -19.703125 64.92578125 C-19.92291016 65.63041504 -20.14269531 66.33504883 -20.36914062 67.06103516 C-20.91553857 68.74040531 -21.53720116 70.39493235 -22.171875 72.04296875 C-24.07982151 78.85577776 -22.72536673 85.58363162 -21.390625 92.37890625 C-21.22363098 93.26080627 -21.05663696 94.1427063 -20.88458252 95.05133057 C-20.52898419 96.92525182 -20.17016618 98.79856459 -19.80834961 100.67129517 C-19.05902234 104.55140643 -18.3263342 108.43460143 -17.5925293 112.31767273 C-17.05490329 115.16067095 -16.51483011 118.00319699 -15.97460938 120.84570312 C-14.77735793 127.16116117 -13.61663208 133.48222884 -12.5 139.8125 C-12.34047852 140.69172119 -12.18095703 141.57094238 -12.01660156 142.47680664 C-11.27625883 146.70984016 -10.83310646 150.68162963 -11 155 C-13.29038472 155.34203078 -15.58240187 155.67313452 -17.875 156 C-19.15117187 156.185625 -20.42734375 156.37125 -21.7421875 156.5625 C-26.49170603 157.1484647 -31.2222421 157.08831799 -36 157 C-37.21566557 150.06089033 -38.42106453 143.12003311 -39.62261963 136.1784668 C-40.03997077 133.76926462 -40.45822879 131.36022059 -40.87646484 128.95117188 C-41.67679953 124.3385432 -42.47309118 119.72522832 -43.26730347 115.11154175 C-43.58898186 113.2462057 -43.91183674 111.38107216 -44.23587036 109.5161438 C-44.69685736 106.86155553 -45.1535868 104.20626639 -45.609375 101.55078125 C-45.74981735 100.74747375 -45.8902597 99.94416626 -46.03495789 99.11651611 C-46.62196187 95.67344635 -47 92.50447822 -47 89 C-48.65 89 -50.3 89 -52 89 C-52.07238892 90.81600708 -52.07238892 90.81600708 -52.14624023 92.66870117 C-52.76435843 107.24852896 -53.86113205 121.77056852 -55.0625 136.3125 C-55.25097203 138.62562491 -55.43912476 140.93877586 -55.62695312 143.25195312 C-56.0809705 148.8349397 -56.53886835 154.41759676 -57 160 C-69.53132118 161.13653189 -69.53132118 161.13653189 -75.75 161.0625 C-76.6771582 161.0514624 -77.60431641 161.0404248 -78.55957031 161.02905273 C-79.76758301 161.01467163 -79.76758301 161.01467163 -81 161 C-81.10420483 153.40094054 -80.80969321 145.90676505 -80.22143555 138.33178711 C-80.13847229 137.2210231 -80.05550903 136.11025909 -79.97003174 134.96583557 C-79.69648077 131.31933904 -79.41684918 127.6733403 -79.13671875 124.02734375 C-78.94190677 121.459779 -78.74731536 118.89219751 -78.55293274 116.32460022 C-78.14458182 110.94396781 -77.73320978 105.56357847 -77.31958008 100.18334961 C-76.8471401 94.03732059 -76.38131992 87.89081674 -75.91897935 81.7440204 C-75.46870672 75.76097712 -75.01257738 69.77839525 -74.55426979 63.79596138 C-74.3626087 61.28605339 -74.17244745 58.77603032 -73.98395348 56.26588249 C-72.71849778 39.45643092 -71.06235098 22.73085957 -69 6 C-67.72117447 5.84152588 -66.44234894 5.68305176 -65.12477112 5.51977539 C-62.89655 5.24365064 -60.66860808 4.96591844 -58.44116211 4.68359375 C-57.43194702 4.56177734 -57.43194702 4.56177734 -56.40234375 4.4375 C-55.72679443 4.35371094 -55.05124512 4.26992188 -54.35522461 4.18359375 C-51.23331684 3.94023575 -48.12987693 3.97346156 -45 4 C-45.40414319 10.60227144 -45.81362712 17.20419615 -46.22680664 23.8059082 C-46.36670638 26.05127475 -46.50538821 28.29671752 -46.64282227 30.54223633 C-46.84069987 33.771856 -47.04297112 37.00117523 -47.24609375 40.23046875 C-47.33678383 41.73386055 -47.33678383 41.73386055 -47.42930603 43.2676239 C-47.51928612 44.67852043 -47.51928612 44.67852043 -47.61108398 46.11791992 C-47.66215805 46.94176682 -47.71323212 47.76561371 -47.76585388 48.61442566 C-48.01233203 51.12564362 -48.48083401 53.53221025 -49 56 C-49.1337853 57.3268766 -49.24063269 58.65683152 -49.31640625 59.98828125 C-49.35830078 60.69404297 -49.40019531 61.39980469 -49.44335938 62.12695312 C-49.48267578 62.84818359 -49.52199219 63.56941406 -49.5625 64.3125 C-49.60568359 65.05306641 -49.64886719 65.79363281 -49.69335938 66.55664062 C-49.79870432 68.37091464 -49.89978316 70.1854355 -50 72 C-48.68 72 -47.36 72 -46 72 C-45.8875293 71.44602539 -45.77505859 70.89205078 -45.65917969 70.32128906 C-44.52992462 64.97826056 -43.05587918 59.89867682 -41.25 54.75 C-38.94273245 48.00984391 -36.86442088 41.23336235 -34.9375 34.375 C-33.12569272 27.93786629 -31.29055508 21.51330667 -29.3125 15.125 C-28.93738281 13.91070312 -28.56226563 12.69640625 -28.17578125 11.4453125 C-26.95229245 7.86020579 -25.53562575 4.46068973 -24 1 C-15.97497656 0.20318916 -8.06350113 -0.12867289 0 0 Z " fill="#318C5A" transform="translate(418,433)"/>
<path d="M0 0 C-0.26186484 5.03565714 -0.52852109 10.0710295 -0.79956055 15.10620117 C-0.89103811 16.81804582 -0.98122129 18.52996017 -1.07006836 20.24194336 C-1.19822889 22.7070647 -1.33108951 25.17189536 -1.46484375 27.63671875 C-1.52272316 28.77919319 -1.52272316 28.77919319 -1.58177185 29.94474792 C-1.79162422 33.72724625 -2.246683 37.2954833 -3 41 C-3.20096939 43.51351297 -3.36885682 46.01434418 -3.5 48.53125 C-3.5609082 49.60155457 -3.5609082 49.60155457 -3.62304688 50.69348145 C-3.75206817 52.96214726 -3.87659691 55.23102208 -4 57.5 C-4.16260801 60.48982782 -4.32988065 63.4793412 -4.5 66.46875 C-4.55317383 67.48926453 -4.55317383 67.48926453 -4.60742188 68.53039551 C-4.75962712 71.19916098 -4.95592801 73.78343442 -5.48951721 76.40544128 C-5.99292863 78.96405935 -6.25758737 81.43117717 -6.44897461 84.03051758 C-6.5225267 85.00535599 -6.5960788 85.9801944 -6.67185974 86.98457336 C-6.74791946 88.02735947 -6.82397919 89.07014557 -6.90234375 90.14453125 C-7.07204946 92.3704592 -7.24197832 94.59637014 -7.41210938 96.82226562 C-7.67588446 100.31759224 -7.93754016 103.81304521 -8.19506836 107.30883789 C-8.44558005 110.69205921 -8.70466429 114.07454155 -8.96484375 117.45703125 C-9.03887924 118.49374466 -9.11291473 119.53045807 -9.18919373 120.59858704 C-10.17188566 133.20882173 -13.06389024 145.394954 -23 154 C-32.8385159 160.02571719 -42.64332608 161.34436388 -54 160 C-60.25537172 158.06763242 -63.9529364 154.60099469 -67.5 149.1875 C-76.03816723 132.85885816 -71.76038419 111.4201792 -70.28515625 93.75390625 C-70.10757505 91.56400953 -69.93062101 89.37406187 -69.7542572 87.18406677 C-69.29251012 81.47184447 -68.82208352 75.76037008 -68.34979248 70.04901123 C-67.87151184 64.24471439 -67.40210059 58.43970059 -66.93164062 52.63476562 C-66.24140054 44.13709357 -65.54853382 35.63964421 -64.84790039 27.14282227 C-64.77668976 26.27557526 -64.70547913 25.40832825 -64.6321106 24.51480103 C-64.49541846 22.86201966 -64.3568227 21.20939441 -64.21614265 19.55694771 C-64.05847459 17.69174901 -63.90735537 15.82599336 -63.76009941 13.95994377 C-63.67740366 12.95959162 -63.59470791 11.95923946 -63.50950623 10.92857361 C-63.43594626 10.01076079 -63.3623863 9.09294798 -63.28659725 8.14732265 C-63 6 -63 6 -62 5 C-54.37824891 3.84172263 -46.68748619 3.90197268 -39 4 C-38.891108 12.35332062 -39.20172655 20.60714401 -39.8046875 28.9375 C-39.88872833 30.13826172 -39.97276917 31.33902344 -40.05935669 32.57617188 C-40.23725866 35.10414684 -40.41721016 37.63197833 -40.59912109 40.15966797 C-40.87223824 43.96155532 -41.13780964 47.76391314 -41.40234375 51.56640625 C-42.21741644 63.13472111 -43.10757886 74.68137653 -44.31536865 86.21565247 C-45.11085047 93.86338907 -45.64998347 101.51325753 -46.125 109.1875 C-46.21136719 110.50041016 -46.29773438 111.81332031 -46.38671875 113.16601562 C-47.50921224 125.17283937 -47.50921224 125.17283937 -46 137 C-41.47043516 137.41922376 -41.47043516 137.41922376 -37.6875 135.125 C-35.16782089 131.95207075 -34.81329948 129.94591069 -34.50683594 125.95776367 C-34.42276489 124.89133133 -34.33869385 123.82489899 -34.2520752 122.72615051 C-34.16373413 121.55195053 -34.07539307 120.37775055 -33.984375 119.16796875 C-33.88829956 117.9366069 -33.79222412 116.70524506 -33.6932373 115.43656921 C-33.48466534 112.75835057 -33.27756702 110.08006393 -33.07287598 107.40155029 C-32.74945664 103.17179863 -32.41989652 98.94254103 -32.08886719 94.71337891 C-32.00530157 93.64539125 -32.00530157 93.64539125 -31.92004776 92.55582809 C-31.806268 91.10172163 -31.69247422 89.64761626 -31.57866669 88.19351196 C-31.40478412 85.96953243 -31.23140898 83.74551385 -31.0581665 81.52148438 C-29.92496437 66.98150672 -28.76175616 52.44403773 -27.57775879 37.90811157 C-27.35928396 35.22429829 -27.142461 32.54035957 -26.92712402 29.85629272 C-26.62608159 26.1096918 -26.32134095 22.36340957 -26.015625 18.6171875 C-25.8831134 16.95425911 -25.8831134 16.95425911 -25.7479248 15.25773621 C-25.66385376 14.23795181 -25.57978271 13.21816742 -25.49316406 12.16748047 C-25.42164124 11.28494598 -25.35011841 10.4024115 -25.27642822 9.49313354 C-24.99480156 6.95311477 -24.53817065 4.49716921 -24 2 C-21.50072231 1.66029235 -19.00080405 1.32811968 -16.5 1 C-15.45585937 0.85691406 -15.45585937 0.85691406 -14.390625 0.7109375 C-13.69453125 0.62070312 -12.9984375 0.53046875 -12.28125 0.4375 C-11.65283203 0.35371094 -11.02441406 0.26992188 -10.37695312 0.18359375 C-6.91371959 -0.08390333 -3.47325181 -0.02544507 0 0 Z " fill="#318C5A" transform="translate(489,426)"/>
<path d="M0 0 C0.89911606 0.00108387 1.79823212 0.00216774 2.72459412 0.00328445 C3.40917191 0.004678 4.09374969 0.00607155 4.79907227 0.00750732 C4.83634257 0.91663864 4.83634257 0.91663864 4.87436581 1.84413624 C5.48265711 16.68027565 6.09217677 31.51636422 6.70301723 46.35239887 C6.99840171 53.52736863 7.29338998 60.70235425 7.58740234 67.87738037 C7.84405115 74.14056706 8.1014873 80.40372084 8.35981899 86.66683835 C8.49622279 89.97451298 8.6321487 93.28220606 8.76736259 96.58992958 C9.52417875 115.2880835 9.52417875 115.2880835 10.49870205 133.97584248 C10.87776145 140.66456512 10.87110902 147.30808963 10.79907227 154.00750732 C-1.08092773 154.99750732 -1.08092773 154.99750732 -13.20092773 156.00750732 C-13.20092773 145.77750732 -13.20092773 135.54750732 -13.20092773 125.00750732 C-20.62592773 125.99750732 -20.62592773 125.99750732 -28.20092773 127.00750732 C-29.52092773 127.00750732 -30.84092773 127.00750732 -32.20092773 127.00750732 C-32.31049805 127.98848389 -32.42006836 128.96946045 -32.53295898 129.98016357 C-33.63084781 139.44325697 -35.19356476 148.69334311 -37.20092773 158.00750732 C-40.05598822 158.95919415 -42.11030055 159.19760193 -45.08764648 159.32391357 C-46.49433594 159.38675537 -46.49433594 159.38675537 -47.92944336 159.4508667 C-48.9059082 159.49018311 -49.88237305 159.52949951 -50.88842773 159.57000732 C-51.87649414 159.61319092 -52.86456055 159.65637451 -53.88256836 159.7008667 C-56.32188544 159.80692396 -58.76132723 159.90825225 -61.20092773 160.00750732 C-60.6606136 153.4977395 -59.76534728 147.20135258 -58.38061523 140.82000732 C-58.2013147 139.97219193 -58.02201416 139.12437653 -57.83728027 138.25086975 C-57.25496875 135.50203611 -56.6654451 132.75480367 -56.07592773 130.00750732 C-55.45878964 127.1030869 -54.84347474 124.1982837 -54.22817993 121.29347229 C-53.81391717 119.33857508 -53.39901968 117.38381227 -52.98348999 115.42918396 C-51.28261369 107.42322451 -49.63218524 99.40762134 -47.99761963 91.38790894 C-45.39463064 78.62331662 -42.65963395 65.89331228 -39.83642578 53.17572021 C-38.23385299 45.92018119 -36.71235089 38.65317937 -35.27514648 31.36297607 C-35.11640045 30.55888809 -34.95765442 29.75480011 -34.7940979 28.92634583 C-34.02313149 25.01123336 -33.2607759 21.09466175 -32.50952148 17.17572021 C-32.23358791 15.76025318 -31.95755158 14.34480616 -31.68139648 12.92938232 C-31.44316162 11.68769287 -31.20492676 10.44600342 -30.95947266 9.16668701 C-29.73133381 4.05174762 -29.73133381 4.05174762 -28.20092773 2.00750732 C-26.02124023 1.36981201 -26.02124023 1.36981201 -23.32592773 1.17938232 C-22.33979492 1.10203857 -21.35366211 1.02469482 -20.33764648 0.94500732 C-19.3025293 0.88313232 -18.26741211 0.82125732 -17.20092773 0.75750732 C-15.6946582 0.6414917 -15.6946582 0.6414917 -14.15795898 0.52313232 C-9.42969419 0.18059309 -4.74056137 -0.00741579 0 0 Z " fill="#318C5A" transform="translate(650.200927734375,409.99249267578125)"/>
<path d="M0 0 C6.03408225 5.58933914 8.42388177 12.87732145 8.85546875 20.95703125 C9.10811071 68.40319132 9.10811071 68.40319132 -4.375 83.625 C-12.46256492 91.0634545 -24.5781074 93.8125 -35.3125 93.8125 C-35.33755615 94.49763672 -35.3626123 95.18277344 -35.38842773 95.88867188 C-35.50535607 99.0300935 -35.62763874 102.17128548 -35.75 105.3125 C-35.78931641 106.39015625 -35.82863281 107.4678125 -35.86914062 108.578125 C-36.22779726 117.62730787 -36.22779726 117.62730787 -36.81640625 121.9921875 C-37.50455141 127.2914471 -37.69146133 132.58636695 -37.91796875 137.921875 C-38.12181213 142.29396406 -38.47587369 146.50387453 -39.3125 150.8125 C-42.18706792 151.14997548 -45.06206059 151.48260463 -47.9375 151.8125 C-49.14986328 151.95558594 -49.14986328 151.95558594 -50.38671875 152.1015625 C-51.57587891 152.23691406 -51.57587891 152.23691406 -52.7890625 152.375 C-53.51174316 152.45878906 -54.23442383 152.54257812 -54.97900391 152.62890625 C-57.76257859 152.84791108 -60.52126511 152.82372164 -63.3125 152.8125 C-63.51912417 140.91116734 -62.88819799 129.2118583 -61.921875 117.35546875 C-61.77515386 115.49733762 -61.62899881 113.63916172 -61.48336792 111.78094482 C-61.09648306 106.86367374 -60.70209428 101.94703335 -60.30597687 97.0304985 C-59.89825148 91.95563778 -59.49698219 86.88026692 -59.09521484 81.80493164 C-58.61610188 75.75771887 -58.13627606 69.71056633 -57.65304565 63.66368103 C-56.74535598 52.30334506 -55.85489854 40.9419633 -54.9921875 29.578125 C-54.80767124 27.16121007 -54.62310375 24.74429904 -54.43847656 22.32739258 C-54.18951506 19.06691788 -53.94171182 15.80638219 -53.69812012 12.54550171 C-53.48248588 9.66412213 -53.26148083 6.78320622 -53.0390625 3.90234375 C-52.97894989 3.07772644 -52.91883728 2.25310913 -52.85690308 1.40350342 C-52.42650174 -4.07349826 -52.42650174 -4.07349826 -51.3125 -5.1875 C-14.0864496 -11.07344301 -14.0864496 -11.07344301 0 0 Z " fill="#3DB473" transform="translate(289.3125,283.1875)"/>
<path d="M0 0 C6.18985095 3.95051921 11.54155173 10.23221377 13.2890625 17.4609375 C13.6426855 22.28048273 13.57163197 27.06939603 13.4765625 31.8984375 C13.45625977 33.85426758 13.45625977 33.85426758 13.43554688 35.84960938 C13.40033584 39.05381372 13.35108344 42.25715855 13.2890625 45.4609375 C10.81070619 45.80152143 8.331663 46.13350229 5.8515625 46.4609375 C5.16384766 46.55632812 4.47613281 46.65171875 3.76757812 46.75 C-1.42884593 47.4267436 -6.47066099 47.54354284 -11.7109375 47.4609375 C-11.70046387 46.74437988 -11.68999023 46.02782227 -11.67919922 45.28955078 C-11.63772451 42.05504845 -11.61163858 38.82060197 -11.5859375 35.5859375 C-11.56917969 34.45800781 -11.55242188 33.33007812 -11.53515625 32.16796875 C-11.52871094 31.09160156 -11.52226563 30.01523437 -11.515625 28.90625 C-11.50515137 27.91125488 -11.49467773 26.91625977 -11.48388672 25.89111328 C-11.46714349 23.27922333 -11.46714349 23.27922333 -13.7109375 21.4609375 C-16.66840242 20.87748274 -16.66840242 20.87748274 -19.7109375 21.4609375 C-23.41265421 25.79698595 -23.2168889 30.29116614 -23.1484375 35.7109375 C-23.13796387 36.56921143 -23.12749023 37.42748535 -23.11669922 38.31176758 C-22.93511046 44.61506199 -22.17933122 49.11532038 -18.7109375 54.4609375 C-17.99526274 55.63411808 -17.28195824 56.80874608 -16.5703125 57.984375 C-14.44839583 61.45345207 -12.27434503 64.88681797 -10.08398438 68.31298828 C-7.82071257 71.85357601 -5.57557869 75.40537035 -3.3359375 78.9609375 C-2.72951416 79.91141968 -2.72951416 79.91141968 -2.11083984 80.88110352 C4.84120312 91.90803308 7.67244282 101.16454645 7.5390625 114.2734375 C7.52782349 115.72592896 7.52782349 115.72592896 7.51635742 117.20776367 C7.35162539 128.1748676 6.51809372 137.18447255 0.2890625 146.4609375 C-0.2678125 147.3478125 -0.8246875 148.2346875 -1.3984375 149.1484375 C-9.51519117 157.26519117 -19.39674047 159.9240172 -30.63574219 159.96948242 C-38.58404393 159.74603988 -43.54617884 156.54241304 -49.0859375 151.1484375 C-49.8903125 149.818125 -49.8903125 149.818125 -50.7109375 148.4609375 C-51.04915527 147.90519043 -51.38737305 147.34944336 -51.73583984 146.77685547 C-55.61074357 139.43183547 -55.16299282 131.96444795 -54.9609375 123.8984375 C-54.94083247 122.49416623 -54.9225888 121.08986702 -54.90625 119.68554688 C-54.85939189 116.27661969 -54.79379255 112.86914793 -54.7109375 109.4609375 C-51.85727396 109.12272553 -49.00313154 108.7902397 -46.1484375 108.4609375 C-45.34857422 108.36554688 -44.54871094 108.27015625 -43.72460938 108.171875 C-39.01641583 107.63379574 -34.44946485 107.35917047 -29.7109375 107.4609375 C-29.72664795 108.23284424 -29.7423584 109.00475098 -29.75854492 109.80004883 C-29.82083357 113.29110412 -29.85990923 116.78204259 -29.8984375 120.2734375 C-29.92357422 121.48837891 -29.94871094 122.70332031 -29.97460938 123.95507812 C-29.98427734 125.11845703 -29.99394531 126.28183594 -30.00390625 127.48046875 C-30.0196167 128.55401611 -30.03532715 129.62756348 -30.05151367 130.73364258 C-29.93286925 133.47326331 -29.93286925 133.47326331 -28.34887695 135.33081055 C-26.69943552 136.68935069 -26.69943552 136.68935069 -24.2109375 136.5234375 C-21.50263366 135.6462615 -21.50263366 135.6462615 -20.0859375 132.97265625 C-18.3629165 128.57209978 -18.19605345 124.89196994 -18.2109375 120.2109375 C-18.16839844 119.01791016 -18.16839844 119.01791016 -18.125 117.80078125 C-18.08700601 106.04164078 -25.90549182 96.83631821 -32.2109375 87.4609375 C-42.50825859 72.1501553 -49.26404165 59.83482844 -49.1484375 41.0859375 C-49.16841797 39.94382812 -49.18839844 38.80171875 -49.20898438 37.625 C-49.20247389 26.16655449 -46.63041354 15.99254695 -38.7109375 7.4609375 C-38.19789063 6.90664062 -37.68484375 6.35234375 -37.15625 5.78125 C-27.43362726 -3.56921493 -12.15525669 -5.58270747 0 0 Z " fill="#3DB372" transform="translate(710.7109375,234.5390625)"/>
<path d="M0 0 C-0.63513505 5.17567496 -1.70654463 10.10411829 -3.125 15.125 C-3.34091797 15.89779297 -3.55683594 16.67058594 -3.77929688 17.46679688 C-5.76619655 24.44042516 -8.06719529 31.29617955 -10.40600586 38.15820312 C-12.61119096 44.68049685 -14.5119051 51.24666259 -16.296875 57.89453125 C-17.60435126 62.7174735 -19.17710751 67.35115118 -20.96484375 72.01953125 C-22.61154884 76.76079912 -23.88046259 81.60597728 -25.16210938 86.45703125 C-26.11528931 90.01808632 -27.13978505 93.39468951 -28.58203125 96.7890625 C-30.62949226 102.08264184 -30.77506368 107.57136507 -31.125 113.1875 C-31.27093813 115.30616323 -31.41928875 117.42466197 -31.5703125 119.54296875 C-31.62977051 120.47133545 -31.68922852 121.39970215 -31.75048828 122.35620117 C-32 125 -32 125 -32.49560547 127.41625977 C-33.10681959 130.54717896 -33.30560698 133.61282154 -33.5 136.796875 C-33.5825 138.08464844 -33.665 139.37242187 -33.75 140.69921875 C-33.87644995 142.73575446 -34.00135825 144.77237391 -34.125 146.80908203 C-34.2461226 148.78442126 -34.37296689 150.75940707 -34.5 152.734375 C-34.5721875 153.91225586 -34.644375 155.09013672 -34.71875 156.30371094 C-35 159 -35 159 -36 160 C-37.77690109 160.22789426 -39.56169968 160.39489788 -41.34765625 160.53515625 C-42.42724609 160.62216797 -43.50683594 160.70917969 -44.61914062 160.79882812 C-45.75544922 160.88583984 -46.89175781 160.97285156 -48.0625 161.0625 C-49.77276367 161.19881836 -49.77276367 161.19881836 -51.51757812 161.33789062 C-54.34475741 161.56264546 -57.17220464 161.78315711 -60 162 C-59.57196437 152.02001145 -59.03492385 142.06409405 -58.21264648 132.10791016 C-57.772891 126.74109831 -57.38025373 121.37131351 -57 116 C-56.94360352 115.26394531 -56.88720703 114.52789062 -56.82910156 113.76953125 C-56.02938053 102.25821832 -58.29401132 91.20169926 -60.28944397 79.9103241 C-61.71877637 71.81719128 -62.92243542 63.71018486 -64 55.5625 C-65.58622226 43.63456936 -67.43836982 31.76513558 -69.42578125 19.89868164 C-69.63074219 18.66239014 -69.83570313 17.42609863 -70.046875 16.15234375 C-70.23088867 15.05913818 -70.41490234 13.96593262 -70.60449219 12.83959961 C-71 10 -71 10 -71 6 C-67.95872183 5.66274935 -64.91705809 5.33007668 -61.875 5 C-61.0190625 4.90460938 -60.163125 4.80921875 -59.28125 4.7109375 C-54.82977526 4.23154791 -50.48558075 3.88234542 -46 4 C-43.62600887 25.92153515 -41.47452433 47.93002191 -42 70 C-41.34 70 -40.68 70 -40 70 C-39.93425781 68.741875 -39.86851562 67.48375 -39.80078125 66.1875 C-38.93881555 57.60105356 -36.40020451 49.31560088 -34.1875 41 C-33.30150268 37.64700027 -32.42041038 34.29274848 -31.54296875 30.9375 C-31.32784637 30.11733398 -31.112724 29.29716797 -30.89108276 28.45214844 C-29.17896197 21.85536415 -27.66230674 15.22464954 -26.24613953 8.55834961 C-25.09762211 3.19524422 -25.09762211 3.19524422 -24 1 C-16.15584957 -0.41168072 -7.94190254 -0.12673249 0 0 Z " fill="#3EB473" transform="translate(498,254)"/>
<path d="M0 0 C0.3882818 12.26732446 -0.78998388 24.41321011 -1.8125 36.625 C-1.99709354 38.87903383 -2.18125223 41.1331033 -2.36499023 43.38720703 C-3.15997608 53.09893311 -3.97542194 62.80879196 -4.828125 72.515625 C-4.89050354 73.22639191 -4.95288208 73.93715881 -5.01715088 74.66946411 C-5.51876322 80.38091059 -5.51876322 80.38091059 -5.74279785 82.9118042 C-6.52046552 91.73477344 -7.19240286 100.56078062 -7.78125 109.3984375 C-7.84682602 110.38121674 -7.91240204 111.36399597 -7.97996521 112.3765564 C-8.29911142 117.19044986 -8.61026415 122.00470886 -8.91040039 126.81982422 C-9.55692014 136.95493318 -10.47681626 146.95563628 -12 157 C-20.04713455 158.16619818 -27.84830452 159.2860244 -36 159 C-36.13930382 149.72002854 -35.72780104 140.57128782 -35.00610352 131.32128906 C-34.89894578 129.90232358 -34.79220781 128.48332635 -34.68585205 127.06430054 C-34.39903859 123.2548494 -34.10610267 119.44589319 -33.81171155 115.63702106 C-33.50353253 111.63924574 -33.20027115 107.64109673 -32.89622498 103.64300537 C-32.38607898 96.94532409 -31.87185027 90.24796562 -31.35522461 83.55078125 C-30.75756515 75.8023681 -30.166818 68.05345043 -29.57959992 60.30423951 C-29.01354647 52.83679881 -28.44234554 45.36976023 -27.86887932 37.90288544 C-27.62512353 34.72758635 -27.38324916 31.55215214 -27.14288521 28.37659454 C-26.86058502 24.64976853 -26.57382011 20.92331301 -26.28352356 17.19710159 C-26.17752259 15.82696011 -26.07310122 14.45669542 -25.97033501 13.08630753 C-25.8304055 11.22374 -25.68431553 9.36163827 -25.53785706 7.49957275 C-25.45766107 6.45547367 -25.37746508 5.41137459 -25.29483891 4.33563614 C-25 2 -25 2 -24 1 C-16.03514542 -0.09533654 -8.02237755 -0.10360855 0 0 Z " fill="#3FB473" transform="translate(417,262)"/>
<path d="M0 0 C1.43655854 -0.08131463 2.8744483 -0.13933559 4.3125 -0.1875 C5.51326172 -0.23970703 5.51326172 -0.23970703 6.73828125 -0.29296875 C9 0 9 0 10.73046875 1.26171875 C16.28260905 8.86388009 13.01029135 24.56826299 12.1875 33.5 C12.11748779 34.32371094 12.04747559 35.14742188 11.9753418 35.99609375 C11.36723578 41.9813606 10.38422741 48.26255372 6.3125 52.9375 C2.94982297 54.48251377 -0.32560838 54.58677055 -4 55 C-3.54321642 43.00342074 -2.91769581 31.03340762 -2 19.0625 C-1.9170166 17.96824707 -1.8340332 16.87399414 -1.74853516 15.74658203 C-1.3314743 10.46244562 -0.83405022 5.23515448 0 0 Z " fill="#F4F6F5" transform="translate(260,299)"/>
<path d="M0 0 C7.6328125 -0.296875 7.6328125 -0.296875 10.9375 2.375 C16.71322222 9.72591919 13.99193798 20.89561377 13.3125 29.75 C13.25924561 30.6366333 13.20599121 31.5232666 13.15112305 32.43676758 C12.61792657 38.6127194 11.03048356 43.20699252 7 48 C3.6294995 50.0223003 0.88855953 50.2222034 -3 50 C-3.02777514 48.66679321 -3.04673341 47.33340287 -3.0625 46 C-3.07990234 44.88625 -3.07990234 44.88625 -3.09765625 43.75 C-3 41 -3 41 -2.52734375 37.328125 C-2.00292478 33.22764005 -1.69880085 29.12629119 -1.46484375 25 C-1.42186661 24.2788501 -1.37888947 23.5577002 -1.33460999 22.81469727 C-1.19979858 20.54326764 -1.06858444 18.27164744 -0.9375 16 C-0.84594244 14.44660046 -0.75414768 12.89321488 -0.66210938 11.33984375 C-0.43866767 7.56005146 -0.21844866 3.78008401 0 0 Z " fill="#F1F4F2" transform="translate(336,291)"/>
<path d="M0 0 C6.640625 -0.28125 6.640625 -0.28125 9.875 2.25 C15.75035531 9.85340099 13.06369724 21.79729269 12.25 30.8125 C12.1883667 31.61244385 12.1267334 32.4123877 12.06323242 33.23657227 C11.50907631 38.76489813 10.12033514 42.38525148 7 47 C3.80652565 49.44833033 0.91409963 49.04799305 -3 49 C-3.26577614 32.5514099 -2.14983307 16.30116141 0 0 Z " fill="#F1F4F2" transform="translate(705,426)"/>
<path d="M0 0 C0.33 0 0.66 0 1 0 C1 25.41 1 50.82 1 77 C-3.29 77 -7.58 77 -12 77 C-12.23897569 70.274112 -11.32512105 64.05259034 -10.13671875 57.44140625 C-9.84774467 55.78757179 -9.84774467 55.78757179 -9.55293274 54.10032654 C-8.93745509 50.58656984 -8.31264226 47.07454871 -7.6875 43.5625 C-7.27867781 41.23773899 -6.87046911 38.91287001 -6.46289062 36.58789062 C-5.4920646 31.05828812 -4.51404023 25.52999534 -3.53265381 20.0022583 C-2.75433587 15.61533484 -1.98059244 11.227608 -1.20703125 6.83984375 C-0.96853215 5.48819523 -0.73001008 4.13655076 -0.49145508 2.78491211 C-0.24818481 1.40638062 -0.24818481 1.40638062 0 0 Z " fill="#EAF0ED" transform="translate(536,275)"/>
<path d="M0 0 C0.33 0 0.66 0 1 0 C1.96216854 23.34026401 2.12002997 46.64216789 2 70 C-4.435 70.495 -4.435 70.495 -11 71 C-10.42571037 62.23870056 -9.44958065 53.70912333 -7.96875 45.05859375 C-7.77277222 43.88788834 -7.57679443 42.71718292 -7.37487793 41.51100159 C-6.96400937 39.06279386 -6.5504483 36.61503656 -6.13427734 34.16772461 C-5.4964813 30.41680633 -4.86667348 26.66461346 -4.23828125 22.91210938 C-3.83639435 20.52336059 -3.43406651 18.13468595 -3.03125 15.74609375 C-2.84268433 14.62633652 -2.65411865 13.50657928 -2.45983887 12.35289001 C-2.28295532 11.31403152 -2.10607178 10.27517303 -1.92382812 9.20483398 C-1.76918091 8.29362289 -1.61453369 7.3824118 -1.4552002 6.44358826 C-1.04971674 4.26688749 -0.56515262 2.14004953 0 0 Z " fill="#E8EDEA" transform="translate(634,442)"/>
<path d="M0 0 C0.33 0 0.66 0 1 0 C1.33808686 2.06172613 1.67027361 4.1244203 2 6.1875 C2.185625 7.33605469 2.37125 8.48460937 2.5625 9.66796875 C2.93489477 12.50415393 3.08596021 15.14719564 3 18 C2.34 18 1.68 18 1 18 C1 26.91 1 35.82 1 45 C0.67 45 0.34 45 0 45 C0 30.15 0 15.3 0 0 Z " fill="#84CBA4" transform="translate(600,295)"/>
<path d="M0 0 C0.33 0 0.66 0 1 0 C0.67 6.27 0.34 12.54 0 19 C-0.99 18.01 -1.98 17.02 -3 16 C-2.67541404 10.59023408 -1.23166504 5.27343962 0 0 Z " fill="#C4D8CD" transform="translate(565,460)"/>
<path d="M0 0 C0.33 0 0.66 0 1 0 C1.33808686 2.06172613 1.67027361 4.1244203 2 6.1875 C2.185625 7.33605469 2.37125 8.48460937 2.5625 9.66796875 C2.93489477 12.50415393 3.08596021 15.14719564 3 18 C2.34 18 1.68 18 1 18 C-0.2039337 14.24600202 -0.09877617 10.66782588 -0.0625 6.75 C-0.05347656 5.48671875 -0.04445313 4.2234375 -0.03515625 2.921875 C-0.02355469 1.95765625 -0.01195312 0.9934375 0 0 Z " fill="#B4DAC5" transform="translate(600,295)"/>
</svg>
